<svg width="60" height="60" viewBox="0 0 24 24" fill="none" xmlns="http://www.w3.org/2000/svg">
    <path d="M12 2C8.69 2 6 4.69 6 8C6 12.5 12 19 12 19C12 19 18 12.5 18 8C18 4.69 15.31 2 12 2ZM12 10C10.9 10 10 9.1 10 8C10 6.9 10.9 6 12 6C13.1 6 14 6.9 14 8C14 9.1 13.1 10 12 10Z" fill="#0D47A1"/>
    <path d="M18 17H10.54C10.02 16.25 9.51 15.5 9.03 14.78C8.42 15.23 7.64 15.5 6.8 15.5C4.96 15.5 3.5 14.04 3.5 12.2C3.5 10.36 4.96 8.9 6.8 8.9H7.8C7.84 8.22 7.97 7.57 8.18 6.96C7.76 6.85 7.32 6.8 6.87 6.8C3.58 6.8 1 9.38 1 12.68C1 16.07 3.64 18.7 7.03 18.7C9.26 18.7 11.22 17.56 12.33 15.85H18C18.55 15.85 19 15.4 19 14.85C19 14.3 18.55 17 18 17Z" fill="#1976D2"/>
</svg>