<svg width="60" height="60" viewBox="0 0 24 24" fill="none" xmlns="http://www.w3.org/2000/svg">
    <path d="M11.5 14.6C11.5 15.9 10.4 17 9.1 17C7.8 17 6.7 15.9 6.7 14.6C6.7 13.3 7.8 12.2 9.1 12.2C10.4 12.2 11.5 13.4 11.5 14.6ZM14.5 14.6C14.5 13.3 15.6 12.2 16.9 12.2C18.2 12.2 19.3 13.3 19.3 14.6C19.3 15.9 18.2 17 16.9 17C15.6 17 14.5 15.9 14.5 14.6ZM16.9 8.7C16.9 11.1 14.2 13 11 13C7.8 13 5.1 11.1 5.1 8.7C5.1 6.3 7.8 4.4 11 4.4C14.2 4.4 16.9 6.3 16.9 8.7ZM11 7.3C9.3 7.3 8 7.9 8 8.7C8 9.5 9.3 10.1 11 10.1C12.7 10.1 14 9.5 14 8.7C14 7.9 12.7 7.3 11 7.3ZM22 10.5V11.8H21.3C21 12.7 20.1 13.4 19.1 13.6C18.5 12.8 17.7 12.2 16.7 12C16.9 11.7 17 11.3 17 10.9C17 9.8 16.3 8.8 15.2 8.3C16.1 6.9 16.1 5.5 14.9 4C14.3 3.2 13.1 2.9 11.7 3.1C9.8 3.3 8.3 4.4 7.6 5.7C5.5 6.3 4 7.5 4 8.8C4 9.4 4.3 10 4.8 10.5C4.3 10.8 4 11.3 4 11.8C4 12.6 4.6 13.3 5.5 13.7C5.4 14 5.3 14.3 5.3 14.7C5.3 15.6 5.7 16.3 6.3 16.8C6.1 17.2 6 17.7 6 18.2C6 19.7 7.2 21 8.8 21H13.2C14.8 21 16 19.8 16 18.2C16 17.8 15.9 17.4 15.7 17C18.1 17 20 15 20 12.6C20 12.2 19.9 11.8 19.8 11.4C21 11.2 22 10.6 22 10.5Z" fill="#E65100"/>
</svg>