<svg width="36" height="36" viewBox="0 0 24 24" fill="none" xmlns="http://www.w3.org/2000/svg">
    <path d="M19.5 5.5H18V3.5C18 2.4 17.1 1.5 16 1.5H8C6.9 1.5 6 2.4 6 3.5V5.5H4.5C3.4 5.5 2.5 6.4 2.5 7.5V19.5C2.5 20.6 3.4 21.5 4.5 21.5H19.5C20.6 21.5 21.5 20.6 21.5 19.5V7.5C21.5 6.4 20.6 5.5 19.5 5.5ZM8 3.5H16V5.5H8V3.5ZM19.5 19.5H4.5V17H20V19.5H19.5ZM19.5 14H4.5V8H8V10H10V8H14V10H16V8H19.5V14Z" fill="currentColor"/>
    <path d="M13 9.5H11V11.5H9V13.5H11V15.5H13V13.5H15V11.5H13V9.5Z" fill="currentColor"/>
</svg>